<svg width="721" height="121" viewBox="0 0 721 121" fill="none" xmlns="http://www.w3.org/2000/svg">
<path d="M716.088 32.8152L716.087 32.8012L716.087 32.7873C715.916 26.4588 711.639 20.5388 705.995 16.3345C700.198 12.0169 692.283 8.94535 683.359 8.54876L683.26 8.54433H683.16H683.155H683.151H683.147H683.143H683.139H683.135H683.13H683.126H683.122H683.118H683.114H683.11H683.105H683.101H683.097H683.093H683.089H683.085H683.081H683.076H683.072H683.068H683.064H683.06H683.056H683.052H683.048H683.044H683.039H683.035H683.031H683.027H683.023H683.019H683.015H683.011H683.007H683.003H682.999H682.994H682.99H682.986H682.982H682.978H682.974H682.97H682.966H682.962H682.958H682.954H682.95H682.946H682.942H682.938H682.934H682.93H682.925H682.921H682.917H682.913H682.909H682.905H682.901H682.897H682.893H682.889H682.885H682.881H682.877H682.873H682.869H682.865H682.861H682.857H682.853H682.849H682.845H682.841H682.837H682.833H682.829H682.825H682.821H682.817H682.813H682.809H682.805H682.802H682.798H682.794H682.79H682.786H682.782H682.778H682.774H682.77H682.766H682.762H682.758H682.754H682.75H682.746H682.742H682.738H682.734H682.731H682.727H682.723H682.719H682.715H682.711H682.707H682.703H682.699H682.695H682.691H682.688H682.684H682.68H682.676H682.672H682.668H682.664H682.66H682.656H682.653H682.649H682.645H682.641H682.637H682.633H682.629H682.625H682.622H682.618H682.614H682.61H682.606H682.602H682.598H682.595H682.591H682.587H682.583H682.579H682.575H682.571H682.568H682.564H682.56H682.556H682.552H682.548H682.545H682.541H682.537H682.533H682.529H682.526H682.522H682.518H682.514H682.51H682.506H682.503H682.499H682.495H682.491H682.487H682.484H682.48H682.476H682.472H682.468H682.465H682.461H682.457H682.453H682.45H682.446H682.442H682.438H682.434H682.431H682.427H682.423H682.419H682.416H682.412H682.408H682.404H682.401H682.397H682.393H682.389H682.386H682.382H682.378H682.374H682.371H682.367H682.363H682.359H682.356H682.352H682.348H682.344H682.341H682.337H682.333H682.329H682.326H682.322H682.318H682.315H682.311H682.307H682.303H682.3H682.296H682.292H682.289H682.285H682.281H682.277H682.274H682.27H682.266H682.263H682.259H682.255H682.252H682.248H682.244H682.241H682.237H682.233H682.229H682.226H682.222H682.218H682.215H682.211H682.207H682.204H682.2H682.196H682.193H682.189H682.185H682.182H682.178H682.174H682.171H682.167H682.163H682.16H682.156H682.152H682.149H682.145H682.141H682.138H682.134H682.13H682.127H682.123H682.12H682.116H682.112H682.109H682.105H682.101H682.098H682.094H682.09H682.087H682.083H682.08H682.076H682.072H682.069H682.065H682.061H682.058H682.054H682.051H682.047H682.043H682.04H682.036H682.032H682.029H682.025H682.022H682.018H682.014H682.011H682.007H682.004H682H681.996H681.993H681.989H681.986H681.982H681.978H681.975H681.971H681.968H681.964H681.96H681.957H681.953H681.95H681.946H681.942H681.939H681.935H681.932H681.928H681.925H681.921H681.917H681.914H681.91H681.907H681.903H681.9H681.896H681.892H681.889H681.885H681.882H681.878H681.875H681.871H681.867H681.864H681.86H681.857H681.853H681.85H681.846H681.842H681.839H681.835H681.832H681.828H681.825H681.821H681.818H681.814H681.81H681.807H681.803H681.8H681.796H681.793H681.789H681.786H681.782H681.779H681.775H681.771H681.768H681.764H681.761H681.757H681.754H681.75H681.747H681.743H681.74H681.736H681.733H681.729H681.725H681.722H681.718H681.715H681.711H681.708H681.704H681.701H681.697H681.694H681.69H681.687H681.683H681.68H681.676H681.673H681.669H681.666H681.662H681.658H681.655H681.651H681.648H681.644H681.641H681.637H681.634H681.63H681.627H681.623H681.62H681.616H681.613H681.609H681.606H681.602H681.599H681.595H681.592H681.588H681.585H681.581H681.578H681.574H681.571H681.567H681.564H681.56H681.557H681.553H681.55H681.546H681.543H681.539H681.536H681.532H681.529H681.525H681.522H681.518H681.515H681.511H681.508H681.504H681.501H681.497H681.494H681.49H681.487H681.483H681.48H681.476H681.473H681.469H681.466H681.462H681.459H681.455H681.452H681.448H681.445H681.441H681.438H681.434H681.431H681.427H681.424H681.42H681.417H681.413H681.41H681.406H681.403H681.399H681.396H681.392H681.389H681.385H681.382H681.378H681.375H681.371H681.368H681.364H681.361H681.357H681.354H681.35H681.347H681.344H681.34H681.337H681.333H681.33H681.326H681.323H681.319H681.316H681.312H681.309H681.305H681.302H681.298H681.295H681.291H681.288H681.284H681.281H681.277H681.274H681.27H681.267H681.263H681.26H681.256C665.795 8.54433 654.404 15.5289 646.697 25.3775C639.098 35.0866 635.101 47.5083 633.844 58.8098C631.545 78.7881 633.77 94.0288 641.972 104.038L641.981 104.049L641.99 104.06C648.215 111.559 657.483 115.489 668.817 116.262L668.895 116.267L668.974 116.27L672.542 116.389L672.617 116.391H672.692C689.348 116.391 705.076 108.272 712.318 95.0311C717.144 86.3348 717.355 76.7054 712.415 68.9196C708.044 62.0265 699.541 59.5737 689.464 59.5737C687.486 59.5737 685.402 59.6711 683.228 59.8637C683.582 59.4957 683.913 59.1137 684.213 58.717C685.179 57.4386 686.079 55.6644 685.99 53.5377L685.986 53.4275L685.976 53.3176C685.796 51.3402 684.87 49.7781 683.692 48.5633C687.889 48.3943 692.469 48.0789 697.366 47.62C702.473 47.1662 707.027 45.9038 710.413 43.5453C713.99 41.0546 716.182 37.3567 716.088 32.8152Z" fill="#E6FE5D" stroke="black" stroke-width="9"/>
<path d="M631.007 64.4361L630.961 64.388L630.915 64.3412C627.793 61.2193 623.947 59.4547 619.644 59.4547C615.282 59.4547 611.167 61.3333 607.525 64.2471C606.759 64.8602 606.003 65.527 605.258 66.2449C606.028 62.4498 606.805 58.0137 607.383 53.3074C608.215 46.5387 608.654 39.0724 608.013 32.0872C607.38 25.1849 605.652 18.253 601.73 12.9825C597.401 7.113 591.177 4.5 583.602 4.5C580.699 4.5 577.64 4.91204 574.596 5.54619L574.541 5.55772L574.486 5.57064C566.973 7.33385 562.222 12.6123 559.298 18.0508C556.395 23.4518 555.043 29.4347 554.411 33.6671C552.516 46.1825 553.85 61.1313 557.81 74.2368C561.713 87.1555 568.491 99.3223 578.347 105.065C587.188 110.314 596.889 113.061 606.203 113.061C615.091 113.061 622.964 110.609 628.758 105.938C634.619 101.214 638.084 94.4153 638.298 86.4377L638.298 86.412L638.299 86.3864C638.43 77.8773 635.971 69.701 631.007 64.4361Z" fill="#E6FE5D" stroke="black" stroke-width="9"/>
<path d="M560.699 63.464L560.697 63.4545L560.694 63.4451C558.135 55.2578 550.359 52.055 541.034 51.7478C542.658 50.7522 544.19 49.7103 545.618 48.6265C551.084 44.4787 555.318 39.5038 557.199 33.9134C559.013 28.877 558.669 23.5487 555.73 19.2142C551.979 13.6035 545.49 11.2802 538.199 11.2802C529.452 11.2802 520.218 14.4159 514.329 16.6994L514.285 16.7164L514.241 16.7344C502.734 21.4762 494.493 27.8893 489.322 37.9608C484.273 47.7947 482.432 60.598 482.432 77.5149C482.432 83.5542 483.247 92.2289 487.291 99.5422C489.35 103.266 492.283 106.7 496.399 109.185C500.524 111.675 505.589 113.061 511.673 113.061C514.094 113.061 516.858 112.797 519.499 112.275C534.388 109.791 548.83 100.274 556.545 87.7218L556.557 87.7014L556.57 87.6808C561.306 79.7879 563.081 71.2029 560.699 63.464Z" fill="#E6FE5D" stroke="black" stroke-width="9"/>
<path d="M445.433 87.0929C445.715 86.4278 445.985 85.7736 446.243 85.1343C446.454 85.9401 446.693 86.7576 446.963 87.5763C449.19 94.339 454.312 103.188 465.407 103.188C471.335 103.188 476.535 100.846 480.385 96.2356C484.215 91.7327 486.505 85.4089 487.525 78.3028C488.555 71.1287 488.343 62.8069 486.856 53.9436C484.879 41.7768 479.553 30.8295 472.324 22.854C465.122 14.9075 455.727 9.61485 445.661 9.61485C440.189 9.61485 434.579 12.7094 429.512 17.0218C424.306 21.4518 419.035 27.7054 414.169 35.2209L414.165 35.2273C404.348 50.4426 397.982 68.4139 397.982 82.5108C397.982 92.7386 400.362 100.333 404.355 105.477C408.397 110.685 413.868 113.061 419.135 113.061C424.085 113.061 428.828 110.995 432.526 107.594C438.231 102.369 442.582 93.8147 445.433 87.0929Z" fill="#E6FE5D" stroke="black" stroke-width="9"/>
<path d="M344.199 61.6746C345.611 61.6746 347.08 61.5407 348.612 61.2736C347.539 64.3463 346.188 68.6435 345.171 73.2973C344.151 77.9579 343.394 83.2301 343.527 88.3833C343.66 93.4957 344.677 98.8315 347.519 103.332C351.543 109.842 360.329 113.061 369.178 113.061C378.447 113.061 387.83 109.584 392.435 103.251C395.868 98.6027 396.152 93.2034 394.394 87.7837L394.383 87.7489L394.371 87.7143C390.565 76.5999 387.077 68.5813 384.514 63.2876C384.219 62.6788 383.937 62.1062 383.668 61.5693C385.856 62.0908 388.449 62.5072 391.184 62.5072C397.516 62.5072 403.194 60.2963 407.173 55.3653C410.459 51.3083 413.073 45.6944 414.407 39.9128C415.733 34.1704 415.921 27.7004 413.69 22.1025C410.938 15.0087 404.893 11.2427 397.364 10.2484L397.327 10.2435L397.291 10.2393C391.007 9.51427 381.425 8.66327 371.557 8.66327C362.987 8.66327 353.161 9.31461 345.215 11.7796C337.474 14.1809 329.697 18.9603 329.006 28.2943L329.005 28.3021L329.005 28.3098C328.646 33.3893 328.383 38.957 328.817 43.9317C329.235 48.7087 330.363 53.9515 333.64 57.4944L333.65 57.5055L333.66 57.5165C336.522 60.569 340.238 61.6746 344.199 61.6746Z" fill="#E6FE5D" stroke="black" stroke-width="9"/>
<path d="M334.373 44.8751L334.372 44.8689C331.889 35.2493 328.207 27.229 323.472 21.5173C318.708 15.7696 312.633 12.1128 305.63 12.1128H305.627H305.624H305.621H305.619H305.616H305.613H305.61H305.607H305.605H305.602H305.599H305.596H305.593H305.591H305.588H305.585H305.582H305.579H305.577H305.574H305.571H305.568H305.566H305.563H305.56H305.557H305.554H305.552H305.549H305.546H305.543H305.54H305.538H305.535H305.532H305.529H305.527H305.524H305.521H305.518H305.515H305.513H305.51H305.507H305.504H305.501H305.499H305.496H305.493H305.49H305.487H305.485H305.482H305.479H305.476H305.474H305.471H305.468H305.465H305.462H305.46H305.457H305.454H305.451H305.448H305.446H305.443H305.44H305.437H305.435H305.432H305.429H305.426H305.423H305.421H305.418H305.415H305.412H305.409H305.407H305.404H305.401H305.398H305.395H305.393H305.39H305.387H305.384H305.382H305.379H305.376H305.373H305.37H305.368H305.365H305.362H305.359H305.356H305.354H305.351H305.348H305.345H305.343H305.34H305.337H305.334H305.331H305.329H305.326H305.323H305.32H305.317H305.315H305.312H305.309H305.306H305.303H305.301H305.298H305.295H305.292H305.29H305.287H305.284H305.281H305.278H305.276H305.273H305.27H305.267H305.264H305.262H305.259H305.256H305.253H305.251H305.248H305.245H305.242H305.239H305.237H305.234H305.231H305.228H305.225H305.223H305.22H305.217H305.214H305.211H305.209H305.206H305.203H305.2H305.198H305.195H305.192H305.189H305.186H305.184H305.181H305.178H305.175H305.172H305.17H305.167H305.164H305.161H305.159H305.156H305.153H305.15H305.147H305.145H305.142H305.139H305.136H305.133H305.131H305.128H305.125H305.122H305.119H305.117H305.114H305.111H305.108H305.106H305.103H305.1H305.097H305.094H305.092H305.089H305.086H305.083H305.08H305.078H305.075H305.072H305.069H305.067H305.064H305.061H305.058H305.055H305.053H305.05H305.047H305.044H305.041H305.039H305.036H305.033H305.03H305.027H305.025H305.022H305.019H305.016H305.014H305.011H305.008H305.005H305.002H305H304.997H304.994H304.991H304.988H304.986H304.983H304.98H304.977H304.975H304.972H304.969H304.966H304.963H304.961H304.958H304.955H304.952H304.949H304.947H304.944H304.941H304.938H304.935H304.933H304.93H304.927H304.924H304.922H304.919H304.916H304.913H304.91H304.908H304.905H304.902H304.899H304.896H304.894H304.891H304.888H304.885H304.883H304.88H304.877H304.874H304.871H304.869H304.866H304.863H304.86H304.857H304.855H304.852H304.849H304.846H304.843H304.841H304.838H304.835H304.832H304.83H304.827H304.824H304.821H304.818H304.816H304.813H304.81H304.807H304.804H304.802H304.799H304.796H304.793H304.791H304.788H304.785H304.782H304.779H304.777H304.774H304.771H304.768H304.765H304.763H304.76H304.757H304.754H304.751H304.749H304.746H304.743H304.74H304.738H304.735H304.732H304.729H304.726H304.724H304.721H304.718H304.715H304.712H304.71H304.707H304.704H304.701H304.699H304.696H304.693H304.69H304.687H304.685H304.682H304.679H304.676H304.673H304.671H304.668H304.665H304.662H304.659H304.657H304.654H304.651H304.648H304.646H304.643H304.64H304.637H304.634H304.632H304.629H304.626H304.623H304.62H304.618H304.615H304.612H304.609H304.607H304.604H304.601H304.598H304.595H304.593H304.59H304.587H304.584H304.581H304.579H304.576H304.573H304.57H304.567H304.565H304.562H304.559H304.556H304.554H304.551H304.548H304.545H304.542H304.54H304.537H304.534H304.531H304.528H304.526H304.523H304.52H304.517H304.515H304.512H304.509H304.506H304.503H304.501H304.498H304.495H304.492H304.489H304.487H304.484H304.481H304.478H304.475H304.473H304.47H304.467H304.464H304.462H304.459H304.456H304.453H304.45H304.448H304.445H304.442H304.439H304.436H304.434H304.431H304.428H304.425H304.423H304.42H304.417H304.414H304.411H304.409H304.406H304.403H304.4H304.397H304.395H304.392H304.389H304.386H304.383H304.381H304.378H304.375H304.372H304.37H304.367H304.364H304.361H304.358H304.356H304.353H304.35H304.347H304.344H304.342H304.339H304.336H304.333H304.331H304.328H304.325H304.322H304.319H304.317H304.314H304.311H304.308H304.305H304.303H304.3H304.297H304.294H304.291H304.289H304.286H304.283H304.28H304.278H304.275H304.272H304.269H304.266H304.264H304.261H304.258H304.255H304.252H304.25H304.247H304.244H304.241H304.239H304.236H304.233H304.23H304.227H304.225H304.222H304.219H304.216H304.213H304.211H304.208H304.205H304.202H303.983L303.765 12.134C297.901 12.7062 293.146 14.9919 290.077 19.7572C286.689 24.9614 286.084 31.9325 286.632 38.5093C285.427 36.8169 284.208 35.2745 282.984 33.8866C278.246 28.5174 272.74 24.7214 266.971 24.7214C266.94 24.7214 266.904 24.7213 266.865 24.7211C266.386 24.719 265.323 24.7144 264.308 24.9521C260.406 25.8061 257.911 29.1901 256.352 32.2234C254.653 35.5286 253.352 39.7982 252.416 44.5244C250.536 54.0195 249.965 66.2169 251.194 78.3263L251.195 78.3359C252.052 86.6052 253.878 95.4538 256.943 102.333C259.825 108.803 264.804 115.605 272.841 115.318L272.906 115.316L272.97 115.311C277.606 115.012 281.584 113.408 284.468 109.623L284.488 109.595L284.509 109.568C287.058 106.114 288.192 101.34 288.335 96.0831C289.023 97.214 289.743 98.3227 290.495 99.3962C295.203 106.117 302.056 112.704 310.982 112.704C314.356 112.704 317.685 111.737 320.915 110.052L320.964 110.027L321.013 110C330.1 104.968 334.671 93.8032 336.454 82.2452C338.279 70.4128 337.426 56.773 334.373 44.8751Z" fill="#E6FE5D" stroke="black" stroke-width="9"/>
<path d="M258.752 81.344L258.75 81.3361L258.748 81.3283C256.724 73.006 251.017 68.0651 244.546 65.3268C241.264 63.9379 237.727 63.0815 234.232 62.5791C244.46 57.7361 251.904 50.258 254.546 40.6646C257.118 31.6311 254.582 22.0203 247.399 16.0233C242.314 11.7184 234.41 9.7338 225.59 9.7338C214.681 9.7338 202.846 12.6224 192.825 18.3214C182.789 24.0287 174.302 32.7267 170.732 44.4407C167.198 55.9747 165.674 68.1901 166.064 78.9712C166.447 89.5742 168.711 99.4994 173.437 105.879C176.727 110.36 181.186 113.061 186.574 113.061C186.584 113.061 186.598 113.061 186.617 113.061C186.83 113.064 187.61 113.075 188.474 112.899C193.03 112.485 196.585 110.429 199.194 107.006L199.214 106.979L199.234 106.952C201.486 103.902 202.611 100.128 203.128 96.4563C206.221 102.512 210.819 109.123 217.426 112.834C220.746 114.726 224.643 115.559 228.682 115.559C238.367 115.559 248.236 110.78 254.096 103.386L254.112 103.366L254.127 103.346C257.555 98.9189 261.179 91.4823 258.752 81.344Z" fill="#E6FE5D" stroke="black" stroke-width="9"/>
<path d="M171.961 48.1014L171.96 48.0868L171.959 48.0722C171.149 39.4199 169.093 32.1282 165.655 26.8646C162.118 21.4497 156.986 18.0603 150.587 18.0603C142.235 18.0603 133.623 23.9791 129.415 31.5399C127.77 34.4491 126.298 38.0699 124.994 41.982C124.992 41.9388 124.99 41.8956 124.988 41.8524C124.683 35.4878 123.836 29.0666 121.919 23.9514C120.044 18.946 116.618 13.9319 110.464 12.9966L110.414 12.9889L110.364 12.9825C104.779 12.2618 99.8484 14.7757 95.7478 19.3006L95.7366 19.3129L95.7255 19.3253C88.9414 26.9235 84.5041 39.8866 81.9453 52.4397C79.3547 65.1491 78.4846 78.4885 79.5039 87.5348L79.5051 87.5447L79.5062 87.5547C80.4795 95.86 83.5666 103.28 89.1379 108.007C94.8858 112.884 102.564 114.292 111.225 111.828C117.796 110.063 122.901 105.547 126.201 101.847C126.423 101.598 126.638 101.351 126.847 101.106C127.323 103.866 128.315 107.142 130.456 109.75L130.539 109.851L130.628 109.948C132.833 112.337 135.592 113.705 139.051 113.887L139.094 113.889L139.137 113.891C142.093 113.989 145.09 112.883 147.723 111.348C150.428 109.772 153.127 107.527 155.585 104.805C165.271 94.1947 174.205 73.9096 171.961 48.1014Z" fill="#E6FE5D" stroke="black" stroke-width="9"/>
<path d="M20.1081 61.6746C21.5206 61.6746 22.9889 61.5407 24.5213 61.2736C23.4478 64.3463 22.0974 68.6435 21.0796 73.2973C20.0604 77.9579 19.3031 83.2301 19.4365 88.3833C19.5688 93.4957 20.5865 98.8315 23.4282 103.332C27.452 109.842 36.238 113.061 45.0875 113.061C54.3549 113.061 63.737 109.584 68.3421 103.254C71.7774 98.6043 72.0611 93.2042 70.3032 87.7837L70.2919 87.7489L70.28 87.7143C66.4745 76.5999 62.9857 68.5813 60.4233 63.2876C60.1286 62.6788 59.8462 62.1062 59.5772 61.5693C61.7654 62.0908 64.3581 62.5072 67.0932 62.5072C73.4248 62.5072 79.1027 60.2963 83.0818 55.3653C86.3683 51.3083 88.9824 45.6944 90.3166 39.9128C91.6418 34.1704 91.8304 27.7004 89.5991 22.1025C86.8474 15.0087 80.8017 11.2427 73.273 10.2484L73.2364 10.2435L73.1996 10.2393C66.9163 9.51427 57.3345 8.66327 47.4665 8.66327C38.896 8.66327 29.0704 9.31461 21.1241 11.7796C13.383 14.1809 5.60639 18.9603 4.91498 28.2943L4.9144 28.3021L4.91385 28.3098C4.55531 33.3893 4.29179 38.957 4.72647 43.9317C5.14388 48.7087 6.2716 53.9515 9.54877 57.4944L9.559 57.5055L9.5693 57.5165C12.4311 60.569 16.1474 61.6746 20.1081 61.6746Z" fill="#E6FE5D" stroke="black" stroke-width="9"/>
</svg>
